<svg width="444" height="193" viewBox="0 0 444 193" fill="none" xmlns="http://www.w3.org/2000/svg">
<path d="M326.952 189.457L441.533 47.2416C444.402 43.7204 442.47 38.4123 438.009 37.5588L258.821 2.26668C254.246 1.39144 250.462 5.83521 252.055 10.2119L316.662 187.72C318.255 192.096 324.011 193.068 326.952 189.457Z" stroke="#0ACA43" stroke-width="4" stroke-linecap="round"/>
<path d="M71 141.5H141.75M238.25 141.5H295" stroke="#A61010" stroke-width="4" stroke-linecap="round" stroke-linejoin="bevel"/>
<path d="M154.493 132.668H160.877V133.868L158.741 134.156L162.701 145.412L163.589 148.34L164.381 145.364L167.957 134.156L166.061 133.868V132.668H171.413V133.868L169.877 134.156L164.189 150.692H162.101L155.957 134.156L154.493 133.868V132.668ZM174.027 134.156L171.795 133.868V132.668H178.851V133.868L176.619 134.156V149.084L178.851 149.348V150.5H171.819V149.324L174.027 149.084V134.156ZM182.819 134.156L180.851 133.868V132.668H184.091C184.635 132.668 185.323 132.636 186.155 132.572C186.923 132.508 187.491 132.476 187.859 132.476C190.067 132.476 191.643 132.82 192.587 133.508C193.547 134.196 194.027 135.204 194.027 136.532C194.027 137.668 193.699 138.644 193.043 139.46C192.387 140.276 191.491 140.788 190.355 140.996C191.891 140.964 193.099 141.324 193.979 142.076C194.859 142.828 195.299 143.852 195.299 145.148C195.299 146.764 194.723 148.084 193.571 149.108C192.435 150.132 190.547 150.644 187.907 150.644C187.331 150.644 186.779 150.62 186.251 150.572C185.003 150.524 184.259 150.5 184.019 150.5H180.827V149.324L182.819 149.084V134.156ZM185.363 140.54C185.587 140.556 186.043 140.564 186.731 140.564H188.051C189.171 140.564 190.019 140.252 190.595 139.628C191.171 139.004 191.459 138.116 191.459 136.964C191.459 135.844 191.171 135.028 190.595 134.516C190.019 133.988 189.035 133.724 187.643 133.724C187.067 133.724 186.475 133.756 185.867 133.82L185.363 133.868V140.54ZM185.363 149.156C185.731 149.284 186.563 149.348 187.859 149.348C189.475 149.348 190.643 149.02 191.363 148.364C192.099 147.692 192.467 146.732 192.467 145.484C192.467 144.252 192.147 143.356 191.507 142.796C190.883 142.236 189.867 141.956 188.459 141.956C186.827 141.956 185.795 141.972 185.363 142.004V149.156ZM198.792 134.156L196.824 133.868V132.668H209.04L209.376 136.388H208.008L207.312 134.06L201.36 133.916V140.684L205.368 140.612L205.704 138.62H207.024V144.14H205.704L205.368 142.076L201.36 142.004V149.156L208.128 148.916L209.4 145.892L210.816 146.324L210.12 150.5H196.8V149.324L198.792 149.084V134.156ZM217.833 150.764C217.001 150.764 216.257 150.692 215.601 150.548C214.945 150.404 214.225 150.212 213.441 149.972C212.961 149.796 212.601 149.7 212.361 149.684L212.553 145.34H214.089L214.497 148.46C214.769 148.716 215.209 148.948 215.817 149.156C216.441 149.348 217.121 149.444 217.857 149.444C219.073 149.444 219.993 149.172 220.617 148.628C221.257 148.084 221.577 147.332 221.577 146.372C221.577 145.748 221.401 145.212 221.049 144.764C220.713 144.316 220.257 143.932 219.681 143.612C219.121 143.292 218.345 142.916 217.353 142.484C216.457 142.084 215.673 141.676 215.001 141.26C214.345 140.844 213.769 140.292 213.273 139.604C212.793 138.9 212.553 138.06 212.553 137.084C212.553 136.204 212.785 135.42 213.249 134.732C213.729 134.028 214.409 133.476 215.289 133.076C216.185 132.676 217.225 132.476 218.409 132.476C219.145 132.476 219.793 132.532 220.353 132.644C220.929 132.756 221.577 132.908 222.297 133.1C222.617 133.212 222.889 133.284 223.113 133.316L222.969 137.348H221.505L221.025 134.396C220.865 134.236 220.529 134.084 220.017 133.94C219.521 133.796 218.977 133.724 218.385 133.724C217.281 133.724 216.441 133.956 215.865 134.42C215.305 134.884 215.025 135.556 215.025 136.436C215.025 137.076 215.193 137.612 215.529 138.044C215.881 138.476 216.313 138.844 216.825 139.148C217.337 139.452 218.153 139.868 219.273 140.396C220.313 140.892 221.161 141.34 221.817 141.74C222.473 142.14 223.033 142.668 223.497 143.324C223.977 143.964 224.217 144.732 224.217 145.628C224.217 146.476 223.977 147.292 223.497 148.076C223.033 148.86 222.313 149.508 221.337 150.02C220.377 150.516 219.209 150.764 217.833 150.764Z" fill="#0ACA43"/>
<path d="M26.592 57.776L14.592 58.256L10.56 79.664H1.536L3.072 50.672H66.336L67.584 79.664H59.04L54.816 58.256L43.2 57.776V114.608L56.544 115.664V122H14.4V115.664L26.592 114.608V57.776ZM76.8585 50.384L68.7945 49.328V45.2L84.4425 43.376H84.6345L86.7465 44.816V67.088L86.3625 75.248C88.4105 73.392 91.2265 71.632 94.8105 69.968C98.3945 68.304 102.011 67.472 105.659 67.472C109.691 67.472 112.827 68.24 115.067 69.776C117.307 71.312 118.875 73.68 119.771 76.88C120.667 80.016 121.115 84.272 121.115 89.648V116.432L127.835 117.296V122H104.891V117.296L111.131 116.432V89.552C111.131 85.776 110.875 82.832 110.363 80.72C109.851 78.544 108.891 76.944 107.483 75.92C106.075 74.832 103.963 74.288 101.147 74.288C98.8425 74.288 96.3785 74.864 93.7545 76.016C91.1305 77.168 88.8265 78.512 86.8425 80.048V116.432L93.4665 117.296V122H71.0985V117.296L76.8585 116.528V50.384ZM156.364 123.056C148.62 123.056 142.7 120.528 138.604 115.472C134.572 110.416 132.556 103.664 132.556 95.216C132.556 89.648 133.612 84.752 135.724 80.528C137.836 76.304 140.78 73.04 144.556 70.736C148.396 68.432 152.748 67.28 157.612 67.28C163.564 67.28 168.172 68.944 171.436 72.272C174.764 75.536 176.524 80.24 176.716 86.384C176.716 90.288 176.492 93.264 176.044 95.312H143.02C143.148 101.648 144.62 106.768 147.436 110.672C150.252 114.512 154.252 116.432 159.436 116.432C161.996 116.432 164.652 115.984 167.404 115.088C170.22 114.128 172.396 113.008 173.932 111.728L175.756 115.952C173.9 117.872 171.148 119.536 167.5 120.944C163.852 122.352 160.14 123.056 156.364 123.056ZM166.156 90.224C166.348 88.88 166.444 87.504 166.444 86.096C166.38 81.936 165.484 78.672 163.756 76.304C162.092 73.872 159.436 72.656 155.788 72.656C152.076 72.656 149.1 74 146.86 76.688C144.684 79.376 143.436 83.888 143.116 90.224H166.156ZM235.396 123.056C224.324 123.056 215.908 119.856 210.148 113.456C204.388 106.992 201.508 98.16 201.508 86.96C201.508 79.408 203.044 72.848 206.116 67.28C209.188 61.648 213.412 57.36 218.788 54.416C224.164 51.408 230.244 49.904 237.028 49.904C239.716 49.904 242.308 50.064 244.804 50.384C247.3 50.64 250.308 51.024 253.828 51.536C256.58 51.984 258.468 52.24 259.492 52.304L258.34 73.712H248.068L244.804 59.024C243.396 57.488 240.452 56.72 235.972 56.72C231.044 56.72 227.14 59.184 224.26 64.112C221.444 68.976 220.036 76.144 220.036 85.616C220.036 94.832 221.412 102.224 224.164 107.792C226.98 113.36 231.044 116.144 236.356 116.144C238.98 116.144 240.964 115.888 242.308 115.376C243.716 114.864 244.9 114.128 245.86 113.168L250.18 102.896L259.588 103.76L257.86 119.408C256.004 119.536 253.732 120.016 251.044 120.848C248.484 121.552 246.052 122.096 243.748 122.48C241.508 122.864 238.724 123.056 235.396 123.056ZM264.686 95.216C264.686 89.456 265.87 84.464 268.238 80.24C270.606 76.016 273.71 72.816 277.55 70.64C281.454 68.4 285.614 67.28 290.03 67.28C298.094 67.28 304.142 69.84 308.174 74.96C312.27 80.08 314.318 86.8 314.318 95.12C314.318 100.944 313.134 105.968 310.766 110.192C308.398 114.416 305.262 117.616 301.358 119.792C297.518 121.968 293.39 123.056 288.974 123.056C280.91 123.056 274.83 120.496 270.734 115.376C266.702 110.256 264.686 103.536 264.686 95.216ZM289.55 117.584C293.966 117.584 297.358 115.76 299.726 112.112C302.094 108.464 303.278 103.056 303.278 95.888C303.278 88.784 302.19 83.152 300.014 78.992C297.838 74.832 294.35 72.752 289.55 72.752C285.134 72.752 281.71 74.576 279.278 78.224C276.91 81.872 275.726 87.28 275.726 94.448C275.726 101.552 276.846 107.184 279.086 111.344C281.326 115.504 284.814 117.584 289.55 117.584ZM341.621 123.056C337.781 123.056 334.261 122.096 331.061 120.176C327.861 118.256 325.301 115.312 323.381 111.344C321.525 107.376 320.597 102.48 320.597 96.656C320.597 91.216 321.717 86.256 323.957 81.776C326.197 77.296 329.397 73.776 333.557 71.216C337.781 68.592 342.741 67.28 348.437 67.28C351.701 67.28 354.677 67.632 357.365 68.336V50.384L347.573 49.232V45.104L364.853 43.376H365.141L367.253 44.912V117.104H372.821V121.52C370.773 121.968 368.981 122.32 367.445 122.576C365.973 122.832 364.405 122.96 362.741 122.96C361.077 122.96 359.893 122.672 359.189 122.096C358.485 121.52 358.133 120.304 358.133 118.448V115.376C356.341 117.552 353.973 119.376 351.029 120.848C348.149 122.32 345.013 123.056 341.621 123.056ZM345.461 116.24C347.957 116.24 350.293 115.696 352.469 114.608C354.645 113.456 356.277 112.144 357.365 110.672V75.536C356.853 74.768 355.637 74.096 353.717 73.52C351.861 72.88 349.877 72.56 347.765 72.56C342.773 72.56 338.773 74.48 335.765 78.32C332.821 82.096 331.349 87.952 331.349 95.888C331.349 102.8 332.661 107.92 335.285 111.248C337.909 114.576 341.301 116.24 345.461 116.24ZM401.918 123.056C394.174 123.056 388.254 120.528 384.158 115.472C380.126 110.416 378.11 103.664 378.11 95.216C378.11 89.648 379.166 84.752 381.278 80.528C383.39 76.304 386.334 73.04 390.11 70.736C393.95 68.432 398.302 67.28 403.166 67.28C409.118 67.28 413.726 68.944 416.99 72.272C420.318 75.536 422.078 80.24 422.27 86.384C422.27 90.288 422.046 93.264 421.598 95.312H388.574C388.702 101.648 390.174 106.768 392.99 110.672C395.806 114.512 399.806 116.432 404.99 116.432C407.55 116.432 410.206 115.984 412.958 115.088C415.774 114.128 417.95 113.008 419.486 111.728L421.31 115.952C419.454 117.872 416.702 119.536 413.054 120.944C409.406 122.352 405.694 123.056 401.918 123.056ZM411.71 90.224C411.902 88.88 411.998 87.504 411.998 86.096C411.934 81.936 411.038 78.672 409.31 76.304C407.646 73.872 404.99 72.656 401.342 72.656C397.63 72.656 394.654 74 392.414 76.688C390.238 79.376 388.99 83.888 388.67 90.224H411.71Z" fill="#2949CB"/>
</svg>
